<?xml version="1.0" standalone="no"?>
<!DOCTYPE svg PUBLIC "-//W3C//DTD SVG 20010904//EN"
 "http://www.w3.org/TR/2001/REC-SVG-20010904/DTD/svg10.dtd">
<svg version="1.0" xmlns="http://www.w3.org/2000/svg"
 width="200pt" height="200pt" viewBox="0 0 300.000000 300.000000"
 preserveAspectRatio="xMidYMid meet">
<metadata>
Created by potrace 1.10, written by Peter Selinger 2001-2011
</metadata>
<g transform="translate(0.000000,300.000000) scale(0.100000,-0.100000)"
fill="#ffffff" stroke="none">
<path d="M1380 2084 c-169 -29 -272 -77 -365 -170 -50 -50 -76 -87 -109 -157
-77 -160 -92 -252 -95 -597 -2 -253 3 -276 70 -312 45 -24 160 -25 209 0 61
30 70 63 70 260 0 206 -7 229 -76 263 -36 17 -58 20 -110 17 l-66 -4 7 60 c20
171 78 309 170 401 103 104 222 145 420 145 190 0 308 -42 411 -145 94 -93
154 -231 170 -393 l6 -68 -60 4 c-73 5 -120 -9 -158 -49 l-29 -30 -3 -187 c-2
-167 -1 -191 16 -221 27 -50 73 -71 157 -71 84 0 130 21 157 71 18 32 19 54
15 319 -4 247 -7 296 -25 366 -38 148 -108 274 -196 351 -57 51 -163 106 -241
128 -58 16 -290 29 -345 19z m304 -35 c45 -8 66 -16 163 -59 137 -62 271 -261
297 -443 4 -27 10 -59 13 -70 9 -42 11 -521 1 -547 -20 -52 -46 -65 -141 -69
-86 -3 -90 -2 -118 25 l-29 28 0 194 0 194 29 29 c28 27 35 29 108 29 48 0 84
5 91 12 32 32 -3 220 -63 343 -85 172 -197 256 -390 290 -59 11 -233 13 -274
4 -20 -4 -51 -11 -69 -14 -105 -18 -255 -131 -315 -236 -50 -88 -83 -197 -94
-311 -8 -81 1 -88 99 -88 75 0 81 -2 109 -29 l29 -29 0 -190 c0 -190 0 -190
-26 -221 -25 -30 -27 -31 -118 -31 -86 0 -94 2 -116 25 -13 13 -26 41 -29 61
-8 45 5 570 14 606 4 15 10 26 14 24 3 -2 6 11 7 30 1 36 3 44 54 149 35 71
150 205 176 205 8 0 14 5 14 11 0 5 5 7 10 4 6 -3 10 -2 10 3 0 12 126 60 174
67 21 2 41 7 45 10 8 9 272 4 325 -6z"/>
<path d="M738 1227 l-38 -22 0 -90 0 -90 40 -23 40 -23 0 136 c0 74 -1 135 -2
135 -2 -1 -20 -11 -40 -23z m12 -114 c0 -65 -3 -84 -11 -76 -12 12 -14 137 -3
155 12 18 14 4 14 -79z"/>
<path d="M2220 1114 c0 -105 3 -134 13 -128 67 39 67 40 67 132 l0 87 -40 22
-40 21 0 -134z m47 -3 c1 -58 -2 -81 -10 -78 -8 2 -12 33 -13 86 0 53 3 80 10
78 7 -2 12 -38 13 -86z"/>
</g>
</svg>
